<?xml version="1.0" encoding="utf-8"?>
<!-- Generator: Adobe Illustrator 20.1.0, SVG Export Plug-In . SVG Version: 6.00 Build 0)  -->
<svg version="1.1" id="Layer_1" xmlns="http://www.w3.org/2000/svg" xmlns:xlink="http://www.w3.org/1999/xlink" x="0px" y="0px"
	 viewBox="0 0 1500 1024" style="enable-background:new 0 0 1500 1024;" xml:space="preserve">
<style type="text/css">
	.st0{fill:#A0182C;}
</style>
<path class="st0" d="M1422.3,95.5c-27.8-10-54.1-19.4-108.1-19.4s-80.2,9.4-108.1,19.4c-28.4,10.2-57.8,20.7-115.7,20.7
	c-57.9,0-87.3-10.5-115.7-20.7c-27.8-10-54.1-19.4-108-19.4s-80.2,9.4-108,19.4c-28.4,10.2-57.8,20.7-115.7,20.7
	s-87.3-10.5-115.7-20.7c-27.8-10-54.1-19.4-108-19.4c-54,0-80.2,9.4-108,19.4c-28.4,10.2-57.8,20.7-115.7,20.7
	s-87.3-10.5-115.7-20.7C57.6,87.5,36.3,79.9,1,77.2v947.2h1499.4V114.5C1465.9,111.1,1443.8,103.2,1422.3,95.5z"/>
</svg>
