<svg xmlns="https://www.w3.org/2000/svg" viewBox="0 0 166.59 124.94"><defs><style>.cls-1{fill:#e55356;}</style></defs><title>Asset 1</title><g id="Layer_2" data-name="Layer 2"><g id="Layer_1-2" data-name="Layer 1"><path class="cls-1" d="M156.76,2.42c-1.21,1.23-4.16,5.2-2.09,13a76,76,0,1,1-143,.67h0C14,8,11,3.88,9.72,2.62a83.3,83.3,0,1,0,147-.21Z"/><path class="cls-1" d="M128.59,46.31a19,19,0,0,0-11.5-1.42q-.94.16-1.88.39c-7,2-12.49,6.82-18.91,10.3l-2.1,1.24C86.48,61.3,78.36,65,70,66.39,44,70.46,28.38,48,25.12,42.74l-.64-1.09a55.35,55.35,0,0,0,2.33,14A63.64,63.64,0,0,0,46.63,85.28q2.22,1.92,4.6,3.62a58.94,58.94,0,0,0,5.95,3.73c14.41,8.91,32.54,9.23,48.06,3.2a59.57,59.57,0,0,0,6.47-3,69.19,69.19,0,0,0,6-3.72,58.76,58.76,0,0,0,5.59-4.43A34.25,34.25,0,0,0,127.39,81,37.16,37.16,0,0,0,131,76.43C138.21,68.29,139.58,51.8,128.59,46.31Z"/><path class="cls-1" d="M54.93,4.13A9.77,9.77,0,0,1,55.66,10q-.08.49-.2,1c-1,3.6-3.51,6.42-5.3,9.73l-.64,1.08A37.67,37.67,0,0,0,44.6,34.29c-2.09,13.37,9.46,21.39,12.17,23.07l.56.33a28.47,28.47,0,0,1-7.2-1.2A32.74,32.74,0,0,1,34.88,46.3q-1-1.14-1.86-2.37a30.32,30.32,0,0,1-1.92-3.06c-4.59-7.41-4.75-16.74-1.65-24.73A30.64,30.64,0,0,1,31,12.82a35.6,35.6,0,0,1,1.91-3.06,30.23,30.23,0,0,1,2.28-2.88,17.62,17.62,0,0,1,1.94-2.12A19.12,19.12,0,0,1,39.44,2.9C43.62-.82,52.1-1.52,54.93,4.13Z"/></g></g></svg>